<?xml version="1.0" encoding="utf-8"?>
<!-- Generator: Adobe Illustrator 27.5.0, SVG Export Plug-In . SVG Version: 6.00 Build 0)  -->
<svg version="1.1" xmlns="http://www.w3.org/2000/svg" xmlns:xlink="http://www.w3.org/1999/xlink" x="0px" y="0px"
	 viewBox="0 0 500 500" style="enable-background:new 0 0 500 500;" xml:space="preserve">
<g id="BACKGROUND">
	<rect style="fill:#FFDFC7;" width="500" height="500"/>
	<g>
		<g>
			
				<line style="fill:none;stroke:#333333;stroke-width:0.5;stroke-linecap:round;stroke-linejoin:round;stroke-miterlimit:10;" x1="46.673" y1="295.078" x2="453.327" y2="295.078"/>
			<g>
				<g>
					
						<line style="fill:none;stroke:#333333;stroke-width:0.5;stroke-linecap:round;stroke-linejoin:round;stroke-miterlimit:10;" x1="400.275" y1="313.264" x2="405.223" y2="313.264"/>
					
						<line style="fill:none;stroke:#333333;stroke-width:0.5;stroke-linecap:round;stroke-linejoin:round;stroke-miterlimit:10;" x1="403.891" y1="315.493" x2="408.838" y2="315.493"/>
				</g>
				<g>
					
						<line style="fill:none;stroke:#333333;stroke-width:0.5;stroke-linecap:round;stroke-linejoin:round;stroke-miterlimit:10;" x1="94.069" y1="308.126" x2="89.121" y2="308.126"/>
					
						<line style="fill:none;stroke:#333333;stroke-width:0.5;stroke-linecap:round;stroke-linejoin:round;stroke-miterlimit:10;" x1="90.453" y1="310.354" x2="85.505" y2="310.354"/>
				</g>
				<g>
					
						<line style="fill:none;stroke:#333333;stroke-width:0.5;stroke-linecap:round;stroke-linejoin:round;stroke-miterlimit:10;" x1="436.505" y1="356.857" x2="441.453" y2="356.857"/>
				</g>
				<g>
					
						<line style="fill:none;stroke:#333333;stroke-width:0.5;stroke-linecap:round;stroke-linejoin:round;stroke-miterlimit:10;" x1="256.227" y1="398.013" x2="261.175" y2="398.013"/>
				</g>
				<g>
					
						<line style="fill:none;stroke:#333333;stroke-width:0.5;stroke-linecap:round;stroke-linejoin:round;stroke-miterlimit:10;" x1="294.288" y1="311.817" x2="299.236" y2="311.817"/>
				</g>
				<g>
					
						<line style="fill:none;stroke:#333333;stroke-width:0.5;stroke-linecap:round;stroke-linejoin:round;stroke-miterlimit:10;" x1="81.043" y1="376.2" x2="85.991" y2="376.2"/>
				</g>
			</g>
			<path style="fill:none;stroke:#333333;stroke-width:0.5;stroke-linecap:round;stroke-linejoin:round;stroke-miterlimit:10;" d="
				M130.431,58.995c7.21,0,13.087,1.638,17.852,4.074c6.898-5.653,16.624-10.226,30.073-10.226c35.251,0,44.99,31.395,44.99,31.395
				h-56.74h-33.24H94.256C94.256,84.238,102.087,58.995,130.431,58.995z"/>
			<path style="fill:none;stroke:#333333;stroke-width:0.5;stroke-linecap:round;stroke-linejoin:round;stroke-miterlimit:10;" d="
				M268.012,115.071c7.211,0,13.087,1.638,17.852,4.074c6.898-5.653,16.624-10.226,30.073-10.226
				c35.251,0,44.99,31.395,44.99,31.395h-56.74h-33.24h-39.109C231.837,140.314,239.668,115.071,268.012,115.071z"/>
		</g>
		<g>
			<path style="fill:none;stroke:#333333;stroke-width:0.5;stroke-linecap:round;stroke-linejoin:round;stroke-miterlimit:10;" d="
				M110.769,180.228c0,33.502-16.453,48.41-36.749,48.41s-36.749-14.907-36.749-48.41s19.55-72.913,36.749-72.913
				S110.769,146.725,110.769,180.228z"/>
			
				<line style="fill:none;stroke:#333333;stroke-width:0.5;stroke-linecap:round;stroke-linejoin:round;stroke-miterlimit:10;" x1="74.02" y1="136.02" x2="74.02" y2="295.078"/>
			
				<polyline style="fill:none;stroke:#333333;stroke-width:0.5;stroke-linecap:round;stroke-linejoin:round;stroke-miterlimit:10;" points="
				56.876,187.452 74.02,204.596 91.163,187.452 			"/>
			
				<polyline style="fill:none;stroke:#333333;stroke-width:0.5;stroke-linecap:round;stroke-linejoin:round;stroke-miterlimit:10;" points="
				62.53,156.051 74.02,167.542 85.51,156.051 			"/>
		</g>
		<g>
			<path style="fill:none;stroke:#333333;stroke-width:0.5;stroke-linecap:round;stroke-linejoin:round;stroke-miterlimit:10;" d="
				M438.812,180.228c0,33.502-16.453,48.41-36.749,48.41c-20.296,0-36.749-14.907-36.749-48.41s19.551-72.913,36.749-72.913
				C419.261,107.315,438.812,146.725,438.812,180.228z"/>
			
				<line style="fill:none;stroke:#333333;stroke-width:0.5;stroke-linecap:round;stroke-linejoin:round;stroke-miterlimit:10;" x1="402.063" y1="136.02" x2="402.063" y2="295.078"/>
			
				<polyline style="fill:none;stroke:#333333;stroke-width:0.5;stroke-linecap:round;stroke-linejoin:round;stroke-miterlimit:10;" points="
				384.919,187.452 402.063,204.596 419.207,187.452 			"/>
			
				<polyline style="fill:none;stroke:#333333;stroke-width:0.5;stroke-linecap:round;stroke-linejoin:round;stroke-miterlimit:10;" points="
				390.573,156.051 402.063,167.542 413.553,156.051 			"/>
		</g>
		<g>
			<path style="fill:none;stroke:#333333;stroke-width:0.5;stroke-linecap:round;stroke-linejoin:round;stroke-miterlimit:10;" d="
				M104.281,144.278c7.175-20.601,19.234-36.964,30.315-36.964c17.199,0,36.749,39.41,36.749,72.913s-16.453,48.41-36.749,48.41
				c-12.569,0-23.663-5.717-30.29-18.026"/>
			
				<line style="fill:none;stroke:#333333;stroke-width:0.5;stroke-linecap:round;stroke-linejoin:round;stroke-miterlimit:10;" x1="134.596" y1="136.02" x2="134.596" y2="295.078"/>
			
				<polyline style="fill:none;stroke:#333333;stroke-width:0.5;stroke-linecap:round;stroke-linejoin:round;stroke-miterlimit:10;" points="
				117.452,187.452 134.596,204.596 151.74,187.452 			"/>
			
				<polyline style="fill:none;stroke:#333333;stroke-width:0.5;stroke-linecap:round;stroke-linejoin:round;stroke-miterlimit:10;" points="
				123.106,156.051 134.596,167.542 146.086,156.051 			"/>
		</g>
		<path style="fill:none;stroke:#333333;stroke-width:0.5;stroke-linecap:round;stroke-linejoin:round;stroke-miterlimit:10;" d="
			M335.289,295.077c6.455-8.969,15.398-15.112,24.994-16.92c9.965-1.878,20.361,0.704,30.19-2.012
			c10.936-3.021,20.05-12.276,30.686-16.596c10.148-4.122,21.545-3.479,31.512,1.778"/>
		<path style="fill:none;stroke:#333333;stroke-width:0.5;stroke-linecap:round;stroke-linejoin:round;stroke-miterlimit:10;" d="
			M41.973,253.165c19.034-10.573,44.112-9.117,61.795,3.586c7.511,5.396,13.902,12.692,22.565,15.93
			c8.074,3.017,17.01,2.085,25.582,2.992c14.39,1.522,27.996,8.725,37.723,19.405"/>
	</g>
</g>
<g id="OBJECTS">
	<g>
		<g>
			<g>
				<rect x="104.301" y="239.287" style="fill:#CC9864;" width="44.043" height="44.043"/>
				
					<rect x="148.344" y="239.287" transform="matrix(-1 -1.224647e-16 1.224647e-16 -1 311.6486 522.6165)" style="fill:#EAB686;" width="14.96" height="44.043"/>
				<rect x="100.823" y="231.54" style="fill:#BA8352;" width="47.521" height="7.747"/>
				
					<rect x="148.344" y="231.54" transform="matrix(-1 -1.224647e-16 1.224647e-16 -1 314.8288 470.8266)" style="fill:#CC9864;" width="18.141" height="7.747"/>
				<rect x="120.846" y="231.54" style="fill:#FFD97B;" width="7.747" height="7.747"/>
				<rect x="122.846" y="239.287" style="fill:#FFD97B;" width="7.747" height="11.218"/>
			</g>
			<g>
				<path style="fill:#D84D1D;" d="M140.977,308.436c-0.217,0-0.436-0.07-0.62-0.216l-27.714-21.911
					c-0.433-0.342-0.507-0.971-0.165-1.404c0.343-0.435,0.971-0.507,1.405-0.164l27.714,21.911c0.433,0.342,0.507,0.971,0.165,1.404
					C141.565,308.307,141.272,308.436,140.977,308.436z"/>
				<rect x="100.813" y="283.33" style="fill:#605651;" width="62.492" height="4.392"/>
				
					<line style="fill:none;stroke:#333333;stroke-width:0.5;stroke-linecap:round;stroke-linejoin:round;stroke-miterlimit:10;" x1="111.618" y1="231.54" x2="111.618" y2="283.33"/>
				
					<line style="fill:none;stroke:#333333;stroke-width:0.5;stroke-linecap:round;stroke-linejoin:round;stroke-miterlimit:10;" x1="140.978" y1="231.54" x2="140.978" y2="283.33"/>
			</g>
		</g>
		<g>
			<g>
				<path style="fill:#FFCE61;" d="M301.855,350.387c-1.222-2.687-3.349-4.985-6.021-6.269c-2.386-1.147-5.028-1.507-7.68-1.802
					c-0.983-0.109-1.967-0.21-2.94-0.338c-0.908-0.119-1.83-0.27-2.65-0.679c-0.005-0.002-0.01-0.004-0.014-0.006
					c-2.769-1.394-3.302-7.759-3.59-10.846c-0.008-0.081-7.421,0.181-8.101,0.198c-1.24,0.03-2.567,0.202-3.789-0.012
					c-0.989-0.173-1.827-0.407-2.875-0.359c-0.152,0.007-0.315,0.021-0.43,0.12c-0.128,0.111-0.158,0.295-0.179,0.464
					c-0.426,3.475-0.313,6.981-0.376,10.473c-0.027,1.516-0.183,8.799-0.125,9.603c0.036,0.498,0.16,0.885,0.351,1.193
					c0.628,1.01,1.985,1.157,3.339,1.541c1.726,0.49,3.479,0.924,5.243,1.259c9.872,1.875,17.638,2.962,27.582,1.72
					c1.532-0.191,3.215-0.167,3.379-1.891C303.113,353.376,302.413,351.614,301.855,350.387z"/>
				<path style="fill:#FFCE61;" d="M301.855,350.387c-1.222-2.687-3.349-4.985-6.021-6.269c-2.189-1.052-4.593-1.441-7.022-1.726
					c-1.794,0.589-3.453,1.59-4.901,2.812c-3.229,2.724-5.47,6.572-6.298,10.713c7.4,1.21,13.999,1.728,21.989,0.73
					c1.532-0.191,3.215-0.168,3.379-1.891C303.113,353.376,302.413,351.614,301.855,350.387z"/>
				<path style="fill:#FFE6B3;" d="M270.787,351.943c-2.628-0.683-5.245-1.524-7.708-2.657c-0.007,0.83-0.006,1.445,0.008,1.648
					c0.036,0.498,0.16,0.885,0.351,1.193c0.628,1.01,1.985,1.157,3.339,1.541c1.726,0.49,3.479,0.924,5.243,1.259
					c9.872,1.875,17.638,2.962,27.582,1.72c1.532-0.191,3.215-0.167,3.379-1.891c0.034-0.354,0.011-0.733-0.048-1.122
					C292.246,355.217,281.244,354.66,270.787,351.943z"/>
			</g>
			<path style="fill:#CC9864;" d="M286,268.538c1.927,1.194,3.624,2.727,4.945,4.761c5.253,8.086,2.598,18.527,0.025,27.003
				c-3.495,11.511-5.718,23.43-8.456,35.113c-0.098,0.418-0.204,0.852-0.475,1.185c-0.266,0.326-0.661,0.516-1.047,0.684
				c-6.347,2.766-13.634,1.968-19.689-1.152c-1.511-0.779,2.279-22.114,2.6-24.595c0.525-4.03,1.457-7.99,2.166-11.989
				c0.286-1.612-0.047-3.416-0.043-5.039c0.001-0.392,0.534-4.965,0.382-4.953c-1.136,0.085-2.231-0.936-2.226-2.076
				c-5.176-0.191-10.347-0.545-15.5-1.067c-4.358-0.442-8.666,0.201-12.977-0.798c-2.599-0.603-5.219-1.321-7.487-2.727
				c-4.569-2.832-6.378-8.542-6.939-13.601c-0.79-7.13,1.636-19.875,9.085-23.238c1.51-0.682,3.246-0.564,4.896-0.406
				c5.019,0.482,9.699,1.861,14.591,2.454c0.073,2.562-1.258,8.674,0.91,10.497c1.838,1.545,7.747,1.325,10.143,1.816
				C269.122,262.095,278.798,264.077,286,268.538z"/>
		</g>
		<g>
			<path style="fill:#D84D1D;" d="M244.267,311.817h-79.411c-3.344,0-6.055-2.711-6.055-6.055v-20.719
				c0-3.344,2.711-6.055,6.055-6.055h79.411c3.344,0,6.055,2.711,6.055,6.055v20.719
				C250.321,309.106,247.611,311.817,244.267,311.817z"/>
			<path style="fill:#605651;" d="M239.799,269.106h-64.131c-1.565,0-2.833,1.269-2.833,2.833v4.215
				c0,1.565,1.269,2.833,2.833,2.833h64.131c1.565,0,2.833-1.269,2.833-2.833v-4.215
				C242.633,270.375,241.364,269.106,239.799,269.106z"/>
			<path style="fill:#D84D1D;" d="M332.739,255.103h-16.191c4.239,9.06,6.677,19.632,6.677,30.929
				c0,24.387-11.341,45.404-27.699,55.085h-55.059v13.205h54.969h12.511h3.468v-13.205c0,0,14.397-22.355,27.091-26.768
				c1.351-6.541,2.077-13.388,2.077-20.447C340.585,279.876,337.74,266.675,332.739,255.103z"/>
			<rect x="240.467" y="350.938" style="fill:#BFBFBF;" width="70.949" height="3.385"/>
			<g>
				<polygon style="fill:#773826;" points="389.332,353.811 317.791,353.811 320.791,328.423 386.332,328.423 				"/>
				<g>
					
						<ellipse transform="matrix(0.9206 -0.3904 0.3904 0.9206 -115.0793 167.1226)" style="fill:#605651;" cx="353.506" cy="366.604" rx="32.759" ry="32.759"/>
					
						<ellipse transform="matrix(0.1592 -0.9872 0.9872 0.1592 -64.7016 657.237)" style="fill:#FFBE5F;" cx="353.506" cy="366.604" rx="19.736" ry="19.735"/>
					<circle style="fill:#FFFFFF;" cx="353.506" cy="366.604" r="14.449"/>
					<circle style="fill:#605651;" cx="353.506" cy="366.604" r="5.79"/>
				</g>
				<g>
					<path style="fill:#F25D22;" d="M353.506,329.022c17.615,0,32.393,12.121,36.465,28.475h9.216
						c0-25.229-20.452-45.681-45.681-45.681c-25.229,0-45.681,20.452-45.681,45.681h9.216
						C321.113,341.143,335.891,329.022,353.506,329.022z"/>
					<path style="fill:#F25D22;" d="M307.825,357.498h9.216c1.624-6.521,4.954-12.366,9.483-17.041h-15.401
						C309.003,345.724,307.825,351.472,307.825,357.498z"/>
					<path style="fill:#F25D22;" d="M389.971,357.498h9.216c0-6.026-1.178-11.774-3.298-17.041h-15.401
						C385.017,345.132,388.348,350.976,389.971,357.498z"/>
				</g>
			</g>
			<g>
				<rect x="129.855" y="322.61" style="fill:#773826;" width="106.585" height="31.202"/>
				<g>
					
						<ellipse transform="matrix(0.7071 -0.7071 0.7071 0.7071 -205.6171 236.8047)" style="fill:#605651;" cx="183.04" cy="366.604" rx="32.759" ry="32.759"/>
					
						<ellipse transform="matrix(0.7071 -0.7071 0.7071 0.7071 -205.6171 236.8047)" style="fill:#FFBE5F;" cx="183.04" cy="366.604" rx="19.736" ry="19.736"/>
					<circle style="fill:#FFFFFF;" cx="183.04" cy="366.604" r="14.449"/>
					<circle style="fill:#605651;" cx="183.04" cy="366.604" r="5.79"/>
				</g>
				<g>
					<path style="fill:#F25D22;" d="M183.04,325.456c19.595,0,35.979,13.701,40.125,32.042h29.651
						c0-38.536-31.24-69.776-69.776-69.776c-38.536,0-69.776,31.24-69.776,69.776h29.651
						C147.061,339.156,163.445,325.456,183.04,325.456z"/>
					<g>
						<path style="fill:#F25D22;" d="M223.165,357.498h29.651c0-5.88-0.736-11.586-2.105-17.041h-35.912
							C218.81,345.326,221.726,351.131,223.165,357.498z"/>
						<path style="fill:#F25D22;" d="M113.264,357.498h29.651c1.439-6.366,4.355-12.172,8.366-17.041h-35.912
							C114,345.911,113.264,351.618,113.264,357.498z"/>
					</g>
				</g>
			</g>
		</g>
		<g>
			<g>
				<path style="fill:#FFCE61;" d="M267.422,355.768c-0.816-2.837-2.585-5.42-5.041-7.081c-2.193-1.483-4.754-2.225-7.334-2.903
					c-0.957-0.251-1.915-0.495-2.859-0.763c-0.881-0.25-1.771-0.534-2.522-1.058c-0.004-0.003-0.009-0.005-0.013-0.008
					c-2.536-1.783-2.134-8.158-1.968-11.253c0.004-0.082-7.368-0.904-8.043-0.987c-1.231-0.151-2.569-0.175-3.746-0.565
					c-0.953-0.316-1.747-0.669-2.792-0.775c-0.151-0.015-0.314-0.025-0.442,0.056c-0.143,0.091-0.2,0.269-0.245,0.432
					c-0.928,3.376-1.328,6.86-1.9,10.306c-0.248,1.495-1.465,8.678-1.525,9.482c-0.038,0.498,0.029,0.899,0.173,1.231
					c0.474,1.091,1.795,1.434,3.079,2.012c1.636,0.737,3.307,1.422,5.003,2.01c9.493,3.295,17.017,5.504,27.035,5.727
					c1.543,0.034,3.205,0.303,3.619-1.377C268.23,358.909,267.795,357.064,267.422,355.768z"/>
				<path style="fill:#FFCE61;" d="M267.422,355.768c-0.816-2.837-2.585-5.42-5.041-7.081c-2.012-1.361-4.333-2.096-6.695-2.732
					c-1.861,0.321-3.648,1.069-5.259,2.066c-3.591,2.223-6.371,5.704-7.794,9.679c7.144,2.277,13.597,3.753,21.647,3.932
					c1.543,0.034,3.205,0.303,3.619-1.377C268.23,358.909,267.795,357.063,267.422,355.768z"/>
				<path style="fill:#FFE6B3;" d="M236.459,352.773c-2.5-1.059-4.966-2.273-7.238-3.754c-0.128,0.82-0.217,1.429-0.232,1.632
					c-0.037,0.498,0.029,0.899,0.173,1.231c0.474,1.091,1.795,1.434,3.079,2.012c1.636,0.737,3.307,1.422,5.003,2.01
					c9.493,3.295,17.017,5.504,27.035,5.727c1.543,0.034,3.205,0.303,3.619-1.377c0.085-0.345,0.118-0.724,0.116-1.117
					C257.211,359.144,246.408,356.987,236.459,352.773z"/>
			</g>
			<g>
				<path style="fill:#CC9864;" d="M263.684,272.482c1.732,1.463,3.187,3.227,4.197,5.431c4.017,8.766-0.134,18.708-3.917,26.718
					c-5.137,10.878-9.076,22.344-13.49,33.503c-0.158,0.399-0.326,0.813-0.643,1.103c-0.311,0.284-0.729,0.414-1.135,0.524
					c-6.683,1.81-13.775-0.043-19.31-4.013c-1.381-0.991,5.482-21.544,6.162-23.952c1.108-3.91,2.608-7.692,3.893-11.544
					c0.518-1.553,0.452-3.387,0.693-4.991c0.058-0.388,1.253-4.833,1.101-4.844c-1.136-0.082-2.07-1.252-1.899-2.379
					c-5.093-0.944-10.157-2.049-15.179-3.318c-4.247-1.073-8.603-1.066-12.721-2.684c-2.483-0.976-4.97-2.069-7.009-3.79
					c-4.106-3.468-5.063-9.381-4.879-14.468c0.243-6.734,2.698-11.428,6.305-17.031c1.285-1.996,2.799-4.087,5.07-4.779
					c1.906-0.581,3.952-0.049,5.872,0.483c6.422,1.78,12.844,3.559,19.266,5.339c0.566,0.157,1.171,0.339,1.534,0.801
					c0.383,0.488,0.396,1.16,0.393,1.78c-0.016,3.005-0.032,6.01-0.049,9.014c-0.02,3.651,7.125,4.42,10.05,5.579
					C253.206,267.031,259.324,268.801,263.684,272.482z"/>
				<g>
					
						<path style="fill:none;stroke:#333333;stroke-width:0.5;stroke-linecap:round;stroke-linejoin:round;stroke-miterlimit:10;" d="
						M243.987,287.737c3.376-1.23,6.609-2.852,9.614-4.822"/>
					
						<path style="fill:none;stroke:#333333;stroke-width:0.5;stroke-linecap:round;stroke-linejoin:round;stroke-miterlimit:10;" d="
						M244.654,290.215c2.511-0.199,4.999-0.681,7.403-1.434"/>
					
						<path style="fill:none;stroke:#333333;stroke-width:0.5;stroke-linecap:round;stroke-linejoin:round;stroke-miterlimit:10;" d="
						M207.561,258.65c3.078-0.435,5.878-2.179,7.96-4.487c2.082-2.308,3.495-5.153,4.509-8.091"/>
					
						<path style="fill:none;stroke:#333333;stroke-width:0.5;stroke-linecap:round;stroke-linejoin:round;stroke-miterlimit:10;" d="
						M212.181,245.788c-1.641,2.614-2.929,5.45-3.816,8.406c-0.466,1.552-0.825,3.168-0.696,4.783
						c0.217,2.714,1.812,5.172,3.853,6.974c2.041,1.801,4.513,3.033,6.974,4.197c6.698,3.167,13.562,5.984,20.553,8.438
						c1.907,0.669,3.891,1.352,5.345,2.755c1.455,1.403,2.209,3.76,1.165,5.491c0.745,0.282,1.49,0.564,2.235,0.846
						c0.515,1.537-2.23,2.69-1.826,4.259c0.18,0.701,0.937,1.098,1.258,1.747c0.382,0.774,0.068,1.694-0.245,2.498
						c-5.325,13.658-9.722,27.678-13.149,41.931"/>
					
						<path style="fill:none;stroke:#333333;stroke-width:0.5;stroke-linecap:round;stroke-linejoin:round;stroke-miterlimit:10;" d="
						M240.994,262.76c2.299,1.009,5.329,1.543,6.993,2.202c5.218,2.069,11.336,3.838,15.696,7.519
						c1.732,1.463,3.187,3.227,4.197,5.431c3.47,7.573,0.844,16.024-2.374,23.348"/>
				</g>
			</g>
		</g>
		<g>
			<path style="fill:#F25D22;" d="M288.589,134.809c0.299,3.424,0.339,6.899-0.322,10.272c-0.661,3.373-2.058,6.655-4.367,9.201
				c-2.086,2.3-5.125,3.99-8.204,3.59c-2.343-0.304-4.418-1.791-5.843-3.675c-1.425-1.884-2.27-4.143-2.904-6.419
				c-2.061-7.391-2.073-15.343-0.034-22.74c1.387-5.032,4.795-10.877,10.746-11.028c5.115-0.13,7.762,6.916,9.024,10.852
				C287.719,128.083,288.295,131.443,288.589,134.809z"/>
			<path style="fill:#5E4028;" d="M283.813,143.566c0.807-3.038,1.389-6.124,1.434-9.259c0.117-8.064-3.549-16.103-9.714-21.302
				c-3.185-2.687-7.013-4.602-11.051-5.617c-4.227-1.063-7.989-0.833-12.05,0.789c-0.384,0.154-2.775,2.104-2.823,2.093
				c-5.352-1.184-11.05,1.09-15.033,4.856c-3.983,3.766-6.472,8.847-8.301,14.014c-1.704,4.814-2.908,9.805-3.587,14.867
				c-0.692,5.165-0.851,10.458-2.492,15.404c-1.641,4.946-5.143,9.659-10.17,11.033c3.186,2.067,7.238,2.75,10.926,1.841
				c-1.838,2.182-4.374,3.766-7.14,4.461c2.534,1.238,5.256,2.05,8.007,2.673c15.717,3.559,32.766,0.834,46.591-7.447
				c2.118-1.269,4.185-2.682,5.823-4.529c2.428-2.739,3.762-6.253,4.987-9.703c1.038-2.923,2.033-5.861,2.985-8.813
				C282.777,147.155,283.335,145.368,283.813,143.566z"/>
		</g>
		<g>
			<path style="fill:#FFBE5F;" d="M257.485,189.356c0.674-3.528,3.271-6.425,5.472-9.136c1.03-1.268,2.596-2.216,4.224-2.078
				c1.52,0.128,2.809,1.152,3.866,2.25c2.537,2.636,4.691,6.245,5.059,9.934c0.528,5.284,1.369,10.537,2.517,15.722
				c0.125,0.566,0.254,1.131,0.387,1.695c0.53,2.257,1.18,4.611,2.802,6.268c3.086,3.151,10.185,4.382,14.313,5.818
				c4.673,1.626,9.497,2.87,14.147,4.542c1.268,0.456,8.894,3.202,8.705,4.545c-0.613,4.361-2.043,8.606-4.194,12.45
				c-4.141-0.87-8.27-1.808-12.362-2.889c-7.917-2.092-16.032-3.749-24.022-5.646c-1.816-0.431-3.688-0.888-5.188-1.999
				c-1.426-1.057-2.387-2.611-3.279-4.145c-4.422-7.599-8.028-15.672-10.737-24.037
				C257.801,198.354,256.637,193.793,257.485,189.356z"/>
			<g>
				<path style="fill:#EAA673;" d="M322.761,243.825c1.697,2.105,5.034,4.727,7.431,1.889c0.234-0.277,0.441-0.603,0.771-0.752
					c0.238-0.108,0.512-0.109,0.759-0.195c0.863-0.299,1.082-1.454,1.823-1.988c0.487-0.351,1.124-0.384,1.713-0.499
					c0.589-0.115,1.232-0.396,1.414-0.968c0.089-0.28,0.05-0.582,0.01-0.873c-0.156-1.128-0.311-2.256-0.467-3.383
					c-0.201-1.456-0.416-2.735-1.581-3.646c-1.305-1.02-2.906-1.725-4.418-2.377c-2.39-1.031-4.739-1.959-7.341-1.813
					c-1.428,0.08-2.871-0.146-4.292,0.062c-1.212,0.177-2.993,0.279-3.934,1.117c-0.361,0.322-0.636,0.727-0.887,1.14
					c-0.726,1.195-1.28,2.493-1.642,3.843c-0.179,0.668-0.301,1.417,0.037,2.02c1.175,2.096,3.955,3.207,6.188,3.593
					C320.37,241.345,321.479,242.235,322.761,243.825z"/>
				<path style="fill:none;stroke:#333333;stroke-width:0.5;stroke-linecap:round;stroke-linejoin:round;stroke-miterlimit:10;" d="
					M320.747,241.545c0.696,0.692,1.492,1.282,2.354,1.751c0.431,0.234,0.878,0.439,1.338,0.61c0.419,0.156,0.802,0.166,1.172,0.451
					c0.043,0.033,0.088,0.074,0.092,0.128c0.005,0.056-0.035,0.105-0.074,0.145c-0.214,0.221-0.474,0.398-0.758,0.516"/>
				<path style="fill:none;stroke:#333333;stroke-width:0.5;stroke-linecap:round;stroke-linejoin:round;stroke-miterlimit:10;" d="
					M334.175,237.344c-0.443,0.236-0.117,1.126-0.587,1.302c-0.12,0.045-0.254,0.019-0.38,0.04c-0.417,0.07-0.569,0.571-0.742,0.957
					c-0.236,0.525-0.661,0.963-1.18,1.213"/>
				<path style="fill:none;stroke:#333333;stroke-width:0.5;stroke-linecap:round;stroke-linejoin:round;stroke-miterlimit:10;" d="
					M329.12,242.237c-0.144,0.44-0.541,0.787-0.996,0.871"/>
			</g>
		</g>
		<g>
			<path style="fill:#FFBE5F;" d="M220.191,208.346c-0.674,1.781-1.686,3.53-2.24,5.341c-0.497,1.628-0.732,3.33-1.313,4.955
				c-1.144,3.204-2.26,6.419-3.425,9.616c-0.989,2.713-2.895,5.032-3.845,7.738c-0.9,2.563-1.547,5.215-2.527,7.814
				c-0.139,0.367-0.278,0.776-0.135,1.142c0.094,0.242,0.298,0.423,0.497,0.591c11.513,9.808,27.592,14.009,42.431,11.086
				c1.803-0.355,3.931-1.161,4.216-2.977c0.209-1.333-0.698-2.842,0.049-3.966c0.357-0.537,1.034-0.842,1.269-1.443
				c0.339-0.866-0.408-1.755-0.557-2.672c-0.351-2.153,1.417-5.844,1.783-8.085c0.59-3.613,0.317-7.331,1.58-10.826
				c1.952-5.402,4.948-10.354,7.763-15.334c2.316-4.098,5.184-7.868,7.368-12.046c2.247-4.298,3.089-7.861,1.175-12.44
				c-1.204-2.88-2.516-5.753-4.438-8.212c-5.342-6.835-14.889-6.191-22.747-5.336c-4.473,0.487-9.71,1.538-13.402,4.245
				c-4.661,3.418-8.247,8.229-10.357,13.598c-1.055,2.685-1.744,5.517-2.013,8.391C221.045,202.51,221.276,205.479,220.191,208.346z
				"/>
			<path style="fill:none;stroke:#333333;stroke-width:0.5;stroke-linecap:round;stroke-linejoin:round;stroke-miterlimit:10;" d="
				M220.058,242.587c8.914,5.749,19.593,8.719,30.196,8.398"/>
			<path style="fill:none;stroke:#333333;stroke-width:0.5;stroke-linecap:round;stroke-linejoin:round;stroke-miterlimit:10;" d="
				M230.736,241.441c5.38,3.797,12.67,4.722,18.827,2.389"/>
			<path style="fill:none;stroke:#333333;stroke-width:0.5;stroke-linecap:round;stroke-linejoin:round;stroke-miterlimit:10;" d="
				M264.171,213.771c3.538-3.231,5.374-8.231,4.768-12.984"/>
			<path style="fill:#FFFFFF;" d="M241.832,177.471c0.047,2.6,16.635,14.462,16.635,14.462s7.177-9.847,4.799-14.832
				c-1.123-2.353-4.823-3.125-10.658-3.023C246.773,174.18,241.785,174.871,241.832,177.471z"/>
		</g>
		<g>
			<g>
				<g>
					<defs>
						<path id="XMLID_56_" d="M244.965,176.449c-0.188,2.884,2.703,6.129,9.361,6.562c6.658,0.433,6.396-2.548,6.589-5.525
							c0.194-2.977,1.915-14.324,1.915-14.324l-17.909-1.165C244.921,161.998,245.152,173.564,244.965,176.449z"/>
					</defs>
					<use xlink:href="#XMLID_56_"  style="overflow:visible;fill:#F2B27E;"/>
					<clipPath id="XMLID_00000005260672964239513290000003633125739583518108_">
						<use xlink:href="#XMLID_56_"  style="overflow:visible;"/>
					</clipPath>
					
						<ellipse transform="matrix(0.0649 -0.9979 0.9979 0.0649 81.8545 408.047)" style="opacity:0.7;clip-path:url(#XMLID_00000005260672964239513290000003633125739583518108_);fill:#F2B27E;" cx="258.657" cy="160.347" rx="14.699" ry="15.349"/>
				</g>
				<g>
					<g>
						<defs>
							<path id="XMLID_55_" d="M233.206,142.731c-0.094-7.175,1.864-14.403,5.881-19.931c3.865-5.319,9.799-8.463,16.843-8.658
								s12.501,2.027,16.862,6.277c4.807,4.684,7.166,11.648,6.601,18.336c-0.248,2.934-1.018,5.81-1.166,8.75
								c-0.268,5.319,1.487,10.843-0.267,15.872c-1.513,4.337-5.507,7.501-9.894,8.86c-4.388,1.359-9.128,1.111-13.637,0.236
								c-6.389-1.24-11.702-5.781-15.461-11.006C235.217,156.254,233.295,149.516,233.206,142.731z"/>
						</defs>
						<use xlink:href="#XMLID_55_"  style="overflow:visible;fill:#F2B27E;"/>
						<clipPath id="XMLID_00000135650591101449174200000005772292358146592643_">
							<use xlink:href="#XMLID_55_"  style="overflow:visible;"/>
						</clipPath>
						
							<circle style="clip-path:url(#XMLID_00000135650591101449174200000005772292358146592643_);fill:#E89777;" cx="276.359" cy="155.76" r="4.701"/>
					</g>
					<g>
						<path style="fill:#E89777;" d="M246.892,155.76c0,2.596,2.104,4.701,4.701,4.701c2.596,0,4.7-2.104,4.7-4.701
							s-2.104-4.701-4.7-4.701C248.996,151.059,246.892,153.164,246.892,155.76z"/>
					</g>
					
						<path style="fill:none;stroke:#333333;stroke-width:0.5;stroke-linecap:round;stroke-linejoin:round;stroke-miterlimit:10;" d="
						M267.649,142.824c-0.276,2.56,0.166,5.194,1.263,7.524c0.605,1.286,1.427,2.572,1.345,3.991
						c-0.056,0.96-0.558,1.885-1.334,2.454c-0.775,0.569-1.808,0.772-2.741,0.538"/>
					<g>
						
							<path style="fill:none;stroke:#333333;stroke-width:0.5;stroke-linecap:round;stroke-linejoin:round;stroke-miterlimit:10;" d="
							M264.72,165.948c-1.447,0.093-2.918-0.144-4.135-0.664"/>
						<g>
							<defs>
								<path id="XMLID_53_" d="M258.214,159.899c-0.37,2.002,1.782,3.936,4.807,4.32c3.026,0.384,5.779-0.928,6.149-2.93
									c0.371-2.002-2.142-1.989-5.168-2.373C260.977,158.532,258.585,157.897,258.214,159.899z"/>
							</defs>
							<use xlink:href="#XMLID_53_"  style="overflow:visible;fill:#C9413A;"/>
							<clipPath id="XMLID_00000130637777770234857440000003634439836336925868_">
								<use xlink:href="#XMLID_53_"  style="overflow:visible;"/>
							</clipPath>
							<path style="clip-path:url(#XMLID_00000130637777770234857440000003634439836336925868_);fill:#F96C4B;" d="M253.407,161.544
								c-0.806,2.027,1.706,4.576,5.611,5.693c3.904,1.117,7.722,0.379,8.528-1.648c0.805-2.027-1.707-4.576-5.611-5.692
								C258.031,158.779,254.212,159.516,253.407,161.544z"/>
							<path style="clip-path:url(#XMLID_00000130637777770234857440000003634439836336925868_);fill:#FFFFFF;" d="M258.486,158.215
								c-0.24,1.364,2.122,2.128,5.138,2.491c3.016,0.363,5.445,0.479,5.685-0.885c0.24-1.364-2.116-1.895-5.132-2.258
								C261.162,157.199,258.726,156.851,258.486,158.215z"/>
							
								<use xlink:href="#XMLID_53_"  style="overflow:visible;fill:none;stroke:#333333;stroke-width:0.5;stroke-linecap:round;stroke-linejoin:round;stroke-miterlimit:10;"/>
						</g>
					</g>
					<path style="fill:#38322E;" d="M255.436,147.851c0,1.257,1.018,2.275,2.275,2.275c1.257,0,2.275-1.019,2.275-2.275
						s-1.019-2.275-2.275-2.275C256.455,145.576,255.436,146.594,255.436,147.851z"/>
					<path style="fill:#38322E;" d="M270.263,147.851c0,1.257,1.019,2.275,2.275,2.275c1.257,0,2.275-1.019,2.275-2.275
						s-1.019-2.275-2.275-2.275C271.282,145.576,270.263,146.594,270.263,147.851z"/>
					<g>
						<path style="fill:#5E4028;" d="M256.678,136.195c3.003-1.086,5.123,0.606,5.375,2.271c0,0-1.865-0.616-4.701-0.187
							c-2.836,0.428-5.138,1.673-5.138,1.673S253.674,137.282,256.678,136.195z"/>
						<path style="fill:#5E4028;" d="M274.622,136.195c-3.003-1.086-5.123,0.606-5.375,2.271c0,0,1.865-0.616,4.701-0.187
							c2.836,0.428,5.138,1.673,5.138,1.673S277.626,137.282,274.622,136.195z"/>
					</g>
				</g>
				<path style="fill:#5E4028;" d="M248.109,134.742c1.74-2.615,3.197-5.425,4.471-8.3c-0.244,3.663-2.068,7.195-4.914,9.515
					c5.254,1.065,10.606-1.483,14.811-4.807c-1.134,2.192-3.084,3.949-5.382,4.85c4.569,0.912,9.14-1.578,12.696-4.588
					c-0.844,2.322-2.782,4.219-5.122,5.012c1.281,0.713,2.811,0.783,4.277,0.783c2.48-0.001,5.023-0.171,7.292-1.171
					c2.269-1.001,4.239-2.977,4.634-5.426c0.459-2.846-0.379-5.07-1.72-7.573c-1.736-3.24-3.687-5.317-6.632-7.504
					c-2.943-2.186-6.573-3.265-10.199-3.811c-7.941-1.197-16.665,0.233-22.619,5.621c-7.926,7.172-8.746,19.689-6.027,29.459
					c4.488-1.595,8.398-4.589,11.511-8.193C246.244,137.383,247.214,136.088,248.109,134.742z"/>
				<g>
					
						<path style="fill:none;stroke:#333333;stroke-width:0.5;stroke-linecap:round;stroke-linejoin:round;stroke-miterlimit:10;" d="
						M233.544,152.712c0.924,3.849,3.709,7.277,9.066,9.091c1.574,0.533,6.181,1.721,7.558,1.366
						c2.051-0.529,0.754-3.283,0.308-4.833c-1.146-3.982-5.201-7.879-8.936-11.552c-0.59-0.58-1.228-1.165-2.079-1.609
						c-0.851-0.444-1.965-0.725-2.849-0.572"/>
					<g>
						<path style="fill:#FFFFFF;" d="M249.26,163.984c0.79,2.006,2.35,3.427,3.92,4.637c3.748,2.89,7.556,5.262,12.422,4.976
							c3.294-0.194,6.539-1.317,9.231-3.229c1.005-0.714,2.24-1.407,3.139-2.242c1.238-1.15,2.1-3.037,2.833-4.533
							c0.272-0.554,0.537-1.167,0.472-1.804c-0.073-0.711-0.549-1.327-0.52-2.042c0.029-0.702,0.536-1.441,0.207-2.029
							c-0.18-0.322-0.551-0.436-0.728-0.76c-0.131-0.241-0.129-0.55-0.228-0.811c-0.167-0.438-0.58-0.656-0.962-0.821
							c-4.07-1.76-8.505-1.797-12.835-1.787c-4.306,0.009-8.634,0.046-12.878,0.893c-1.452,0.29-4.341,0.451-4.871,2.429
							C247.957,158.748,248.578,162.254,249.26,163.984z"/>
						<g>
							
								<path style="fill:none;stroke:#333333;stroke-width:0.5;stroke-linecap:round;stroke-linejoin:round;stroke-miterlimit:10;" d="
								M251.456,167.041c-0.31-0.971-0.956-2.52-0.758-3.572c0.047-0.247,0.131-0.486,0.145-0.739
								c0.047-0.846-0.695-1.622-0.483-2.432c0.08-0.307,0.29-0.554,0.341-0.869c0.061-0.373-0.112-0.736-0.225-1.092
								c-0.384-1.209,0.095-2.176,0.325-3.323"/>
							
								<path style="fill:none;stroke:#333333;stroke-width:0.5;stroke-linecap:round;stroke-linejoin:round;stroke-miterlimit:10;" d="
								M278.917,155.197c-0.1,1.131,0.6,2.134,0.803,3.246c0.143,0.781,0.037,1.603,0.198,2.379c0.067,0.325,0.18,0.635,0.265,0.954
								c0.265,0.999,0.249,2.097-0.045,3.082"/>
							
								<path style="fill:none;stroke:#333333;stroke-width:0.5;stroke-linecap:round;stroke-linejoin:round;stroke-miterlimit:10;" d="
								M249.471,158.275c5.117,3.101,10.915,4.612,16.654,4.34"/>
							
								<path style="fill:none;stroke:#333333;stroke-width:0.5;stroke-linecap:round;stroke-linejoin:round;stroke-miterlimit:10;" d="
								M249.391,161.377c3.247,3.299,7.08,5.788,11.176,7.259"/>
							
								<path style="fill:none;stroke:#333333;stroke-width:0.5;stroke-linecap:round;stroke-linejoin:round;stroke-miterlimit:10;" d="
								M253.82,163.541c4.16,3.056,9.15,4.504,14.027,4.068"/>
							
								<path style="fill:none;stroke:#333333;stroke-width:0.5;stroke-linecap:round;stroke-linejoin:round;stroke-miterlimit:10;" d="
								M268.745,164.791c1.98-0.257,3.965-0.588,5.863-1.3c1.898-0.712,3.716-1.824,5.129-3.478"/>
							
								<path style="fill:none;stroke:#333333;stroke-width:0.5;stroke-linecap:round;stroke-linejoin:round;stroke-miterlimit:10;" d="
								M272.541,167.949c2.844-1.474,5.818-3.066,7.672-6.007"/>
						</g>
					</g>
				</g>
				<g>
					<path style="fill:#F2B27E;" d="M231.178,150.973c1.804,4.852,6.227,7.751,8.444,6.672c1.722-0.837,1.993-4.068,0.99-7.943
						c-1.003-3.875-3.899-8.806-6.821-8.069C230.869,142.369,229.374,146.121,231.178,150.973z"/>
					<path style="fill:#FFE3C0;" d="M233.653,144.367c1.449,0.588,2.591,1.763,3.451,3.069c1.155,1.754,1.87,3.796,2.061,5.887
						c-0.466-0.343-1.105-0.438-1.651-0.244c-0.587,0.208-0.851,0.657-1.138,1.161c-1.291-0.539-2.417-2.418-3.006-3.619
						c-0.69-1.407-1.064-2.973-1.048-4.542C232.331,145.26,232.557,143.923,233.653,144.367z"/>
				</g>
			</g>
			<g>
				<path style="fill:#38322E;" d="M241.927,169.48c2.324,1.695,4.883,3.132,7.677,3.878c2.793,0.745,5.842,0.763,8.526-0.301
					c-4.827-1.866-9.401-4.465-13.165-7.97c-3.763-3.505-6.692-7.947-7.999-12.875c-1.169,0.95-2.666,1.399-4.122,1.817
					c-0.808,0.232-1.674,0.498-2.181,1.157c-1.102,1.433,2.979,5.96,3.968,7.228C236.714,165.084,239.175,167.473,241.927,169.48z"
					/>
				<path style="fill:#F25D22;" d="M225.463,113.778c-6.363,8.67-8.329,20.199-6.088,30.718c0.823,3.863,2.246,7.723,4.949,10.602
					c2.703,2.88,6.885,4.602,10.697,3.57c4.331-1.173,7.078-5.395,8.856-9.515c1.779-4.12,3.107-8.621,6.262-11.812
					c4.142-4.189,10.563-5.186,16.442-4.805c4.681,0.303,9.512,1.312,13.968-0.152c1.558-0.512,3.064-1.359,4.026-2.688
					c0.73-1.008,1.107-2.239,1.247-3.476c0.475-4.179-1.632-8.241-4.252-11.531c-10.241-12.865-30.51-18.285-45.245-10.328
					C232.076,106.655,228.321,109.883,225.463,113.778z"/>
				<path style="fill:#F9F1E8;" d="M237.327,143.989c0.68,4.434-1.238,8.406-4.282,8.872c-3.044,0.467-6.063-2.749-6.743-7.182
					c-0.679-4.434,1.238-8.406,4.282-8.872S236.647,139.556,237.327,143.989z"/>
				<path style="fill:#38322E;" d="M233.681,144.548c0.393,2.561-0.42,4.811-1.815,5.025c-1.395,0.214-2.844-1.689-3.237-4.251
					c-0.393-2.561,0.42-4.811,1.815-5.025C231.839,140.083,233.288,141.987,233.681,144.548z"/>
			</g>
		</g>
		<g>
			<path style="fill:#F25D22;" d="M335.709,255.103h-28.02c-2.693,0-4.876-2.183-4.876-4.876v-11.459
				c0-2.693,2.183-4.876,4.876-4.876h28.02c2.693,0,4.875,2.183,4.875,4.876v11.459C340.585,252.92,338.402,255.103,335.709,255.103
				z"/>
			<path style="fill:#404040;" d="M303.954,247.739h-16.609c-1.157,0-2.095-0.938-2.095-2.095v-4.45
				c0-1.157,0.938-2.095,2.095-2.095h16.609c2.386,0,4.32,1.934,4.32,4.32l0,0C308.275,245.805,306.34,247.739,303.954,247.739z"/>
			<path style="fill:#FFBE5F;" d="M326.717,237.287c0,0-3.491,1.745-3.491,7.21c0,5.465,3.491,7.211,3.491,7.211
				c6.735,0,12.195-3.228,12.195-7.211C338.911,240.515,333.452,237.287,326.717,237.287z"/>
		</g>
		<g>
			<g>
				<path style="fill:#EAA673;" d="M293.439,249.727c1.698,2.103,5.037,4.724,7.432,1.884c0.234-0.277,0.44-0.603,0.771-0.753
					c0.238-0.108,0.512-0.109,0.759-0.195c0.863-0.3,1.082-1.454,1.822-1.989c0.487-0.352,1.124-0.385,1.713-0.5
					c0.589-0.116,1.232-0.397,1.413-0.969c0.089-0.28,0.049-0.582,0.009-0.873c-0.156-1.128-0.313-2.255-0.469-3.383
					c-0.202-1.456-0.418-2.734-1.584-3.645c-1.306-1.019-2.907-1.723-4.42-2.374c-2.391-1.029-4.74-1.956-7.342-1.809
					c-2.258,0.128-5.271-0.56-7.017,1.35c-1.58,1.729-2.672,3.97-3.183,6.246c-0.058,0.259-0.109,0.529-0.056,0.79
					c0.058,0.282,0.232,0.524,0.416,0.745c1.378,1.663,3.262,2.294,5.317,2.647C291.046,247.248,292.155,248.137,293.439,249.727z"
					/>
				<path style="fill:none;stroke:#333333;stroke-width:0.5;stroke-linecap:round;stroke-linejoin:round;stroke-miterlimit:10;" d="
					M291.423,247.447c0.697,0.691,1.493,1.281,2.355,1.749c0.431,0.234,0.879,0.438,1.338,0.609c0.419,0.156,0.802,0.165,1.172,0.45
					c0.043,0.033,0.088,0.074,0.093,0.127c0.005,0.056-0.035,0.105-0.074,0.145c-0.214,0.221-0.474,0.399-0.758,0.517"/>
				<path style="fill:none;stroke:#333333;stroke-width:0.5;stroke-linecap:round;stroke-linejoin:round;stroke-miterlimit:10;" d="
					M304.848,243.237c-0.443,0.236-0.116,1.126-0.587,1.302c-0.12,0.045-0.254,0.019-0.38,0.04c-0.417,0.07-0.568,0.571-0.741,0.957
					c-0.235,0.525-0.661,0.963-1.179,1.214"/>
				<path style="fill:none;stroke:#333333;stroke-width:0.5;stroke-linecap:round;stroke-linejoin:round;stroke-miterlimit:10;" d="
					M299.797,248.134c-0.144,0.44-0.54,0.787-0.996,0.871"/>
			</g>
			<path style="fill:#FFBE5F;" d="M226.594,186.467c-0.391,1.601-0.535,3.267-0.584,4.919c-0.068,2.3,0.772,3.983,1.676,6.055
				c1.228,2.813,2.512,5.601,3.851,8.363c2.621,5.406,5.454,10.708,8.491,15.892c1.047,1.787,2.124,3.568,3.463,5.147
				c1.643,1.937,3.648,3.531,5.706,5.019c5.028,3.636,10.459,6.714,16.158,9.166c5.668,2.439,11.185,5.056,16.843,7.539
				c1.084,0.475,4.804-4.873,5.289-5.669c1.358-2.228,2.363-4.938,3.094-7.422c-2.655-1.793-5.267-3.884-7.996-5.521
				c-2.554-1.531-5.711-2.384-8.449-3.615c-4.286-1.927-8.574-4.018-12.59-6.465c-3.301-2.011-4.876-4.942-6.384-8.423
				c-2.739-6.326-5.479-12.652-8.218-18.978c-1.157-2.671-2.321-5.381-3.969-7.795c-1.127-1.651-2.301-4.75-4.24-5.614
				c-2.025-0.902-5.333-0.472-7.244,0.501c-2.034,1.035-3.503,2.978-4.334,5.104C226.928,185.257,226.743,185.857,226.594,186.467z"
				/>
			<g>
				<path style="fill:none;stroke:#333333;stroke-width:0.5;stroke-linecap:round;stroke-linejoin:round;stroke-miterlimit:10;" d="
					M231.537,205.803c2.621,5.406,5.454,10.708,8.491,15.892c1.047,1.787,2.124,3.568,3.463,5.147
					c1.643,1.937,3.648,3.531,5.706,5.019c2.358,1.705,4.804,3.287,7.325,4.74"/>
				<path style="fill:none;stroke:#333333;stroke-width:0.5;stroke-linecap:round;stroke-linejoin:round;stroke-miterlimit:10;" d="
					M261.546,219.876c-3.301-2.011-4.876-4.942-6.384-8.423c-2.238-5.167-4.475-10.335-6.713-15.502"/>
				<path style="fill:none;stroke:#333333;stroke-width:0.5;stroke-linecap:round;stroke-linejoin:round;stroke-miterlimit:10;" d="
					M257.326,218.663c-1.936,0.426-3.739,1.44-5.109,2.873"/>
				<path style="fill:none;stroke:#333333;stroke-width:0.5;stroke-linecap:round;stroke-linejoin:round;stroke-miterlimit:10;" d="
					M255.325,217.704c-1.283-0.057-2.579,0.193-3.748,0.723"/>
				<path style="fill:none;stroke:#333333;stroke-width:0.5;stroke-linecap:round;stroke-linejoin:round;stroke-miterlimit:10;" d="
					M290.581,235.476c-2.655-1.793-5.267-3.884-7.996-5.521c-2.554-1.531-5.711-2.384-8.449-3.615
					c-1.966-0.884-3.932-1.802-5.871-2.773"/>
			</g>
		</g>
	</g>
</g>
</svg>
